# xmcd
# 
# Track frame offsets:
#     150
#     14459
#     26219
#     41069
#     53710
#     67284
#     81757
#     97568
#     113670
#     127379
#     142820
#     152870
#     164228
#     178318
#     187251
#     198478
#     208241
#     218784
#     229491
#     243580
#     258518
#     271137
#     286488
#     297477
#     310030
#     322426
# 
# Disc length: 4525
# 
# Revision: 1
# Processed by: cddbd v1.5.2PL0 Copyright (c) Steve Scherf et al.
# Submitted via: fre:ac v1.0.17
# 
DISCID=aa11ab1a
DTITLE=Matt Monro - The Rare Monro [CD1]
DYEAR=2006
DGENRE=Vocal
TTITLE0=Other People
TTITLE1=Mirage
TTITLE2=All Of A Sudden
TTITLE3=Yours Alone
TTITLE4=Let Me Choose Life
TTITLE5=Only The Night Wind Knows
TTITLE6=No Puedo Quitar Mis Ojos De Ti (Can't Take My Eyes Off You)
TTITLE7=Love Song
TTITLE8=Try To Remember
TTITLE9=Alone Am I
TTITLE10=The Lady Smiles
TTITLE11=Don't Answer Me
TTITLE12=For The Touch Of Your Love
TTITLE13=How Could I Ever Leave You
TTITLE14=I Love You Too
TTITLE15=Walk Into The Dawn
TTITLE16=Is There Anything I Can Do
TTITLE17=When Love Comes Along
TTITLE18=It's That Time Again
TTITLE19=During One Night
TTITLE20=Only Friends
TTITLE21=I've So Much To Be Thankful For
TTITLE22=These Things Happen
TTITLE23=When I Look Into Your Eyes
TTITLE24=Where In The World
TTITLE25=New York New York
EXTD=
EXTT0=
EXTT1=
EXTT2=
EXTT3=
EXTT4=
EXTT5=
EXTT6=
EXTT7=
EXTT8=
EXTT9=
EXTT10=
EXTT11=
EXTT12=
EXTT13=
EXTT14=
EXTT15=
EXTT16=
EXTT17=
EXTT18=
EXTT19=
EXTT20=
EXTT21=
EXTT22=
EXTT23=
EXTT24=
EXTT25=
PLAYORDER=
